<svg height="423pt" viewBox="-61 0 423 423.25333" width="423pt" xmlns="http://www.w3.org/2000/svg"><path d="m150.3125 13.652344c-75.40625 0-136.53125 61.128906-136.53125 136.535156s95.570312 218.453125 136.53125 218.453125 136.535156-143.046875 136.535156-218.453125-61.128906-136.535156-136.535156-136.535156zm0 191.148437c-37.699219 0-68.265625-30.566406-68.265625-68.265625 0-9.714844 2.027344-18.957031 5.6875-27.320312 6.519531-14.917969 18.214844-27.050782 32.816406-34.136719 8.996094-4.363281 19.09375-6.8125 29.761719-6.8125 37.703125 0 68.265625 30.566406 68.265625 68.269531 0 37.699219-30.5625 68.265625-68.265625 68.265625zm0 0" fill="#f6d831"/><path d="m150.3125 382.292969c-51.933594 0-150.1875-151.847657-150.1875-232.105469 0-82.8125 67.375-150.1875 150.1875-150.1875s150.1875 67.375 150.1875 150.1875c0 80.257812-98.253906 232.105469-150.1875 232.105469zm0-354.984375c-67.753906 0-122.878906 55.125-122.878906 122.878906 0 76.699219 96.714844 204.800781 122.878906 204.800781 26.167969 0 122.878906-128.101562 122.878906-204.800781 0-67.753906-55.125-122.878906-122.878906-122.878906zm0 191.144531c-45.171875 0-81.917969-36.746094-81.917969-81.917969 0-11.402344 2.300781-22.4375 6.832031-32.796875 7.820313-17.882812 21.800782-32.433593 39.375-40.945312 11.171876-5.425781 23.191407-8.179688 35.710938-8.179688 45.175781 0 81.921875 36.746094 81.921875 81.921875 0 45.171875-36.746094 81.917969-81.921875 81.917969zm0-136.53125c-8.351562 0-16.359375 1.832031-23.792969 5.4375-11.730469 5.6875-21.058593 15.390625-26.277343 27.320313-3.015626 6.894531-4.542969 14.246093-4.542969 21.855468 0 30.113282 24.5 54.613282 54.613281 54.613282s54.613281-24.5 54.613281-54.613282c0-30.117187-24.5-54.613281-54.613281-54.613281zm0 0" fill="#5c128d"/><path d="m150.3125 423.253906c-11.179688 0-109.226562-1.148437-109.226562-40.960937 0-7.234375 3.554687-17.605469 20.488281-25.9375 6.753906-3.347657 14.945312-.546875 18.273437 6.21875 3.332032 6.761719.546875 14.949219-6.222656 18.273437-1.113281.554688-2.03125 1.058594-2.777344 1.519532 9.304688 5.667968 36.8125 13.582031 79.464844 13.582031 42.644531 0 70.152344-7.914063 79.460938-13.582031-.761719-.464844-1.699219-.984376-2.847657-1.546876-6.773437-3.3125-9.574219-11.492187-6.253906-18.265624 3.3125-6.765626 11.492187-9.558594 18.265625-6.253907 17.027344 8.339844 20.601562 18.738281 20.601562 25.992188 0 39.8125-98.046874 40.960937-109.226562 40.960937zm0 0" fill="#e64c52"/></svg>